<?xml version="1.0" encoding="UTF-8" standalone="no"?>
<!-- Generator: Adobe Illustrator 13.0.2, SVG Export Plug-In . SVG Version: 6.00 Build 14948)  -->

<svg
   version="1.2"
   id="Layer_1"
   x="0px"
   y="0px"
   viewBox="0 0 16 16"
   xml:space="preserve"
   sodipodi:docname="oshw.svg"
   width="16"
   height="16"
   inkscape:version="1.2.2 (b0a8486541, 2022-12-01)"
   xmlns:inkscape="http://www.inkscape.org/namespaces/inkscape"
   xmlns:sodipodi="http://sodipodi.sourceforge.net/DTD/sodipodi-0.dtd"
   xmlns="http://www.w3.org/2000/svg"
   xmlns:svg="http://www.w3.org/2000/svg"><defs
   id="defs41" /><sodipodi:namedview
   id="namedview39"
   pagecolor="#ffffff"
   bordercolor="#666666"
   borderopacity="1.0"
   inkscape:showpageshadow="2"
   inkscape:pageopacity="0.0"
   inkscape:pagecheckerboard="0"
   inkscape:deskcolor="#d1d1d1"
   showgrid="false"
   inkscape:zoom="10.431285"
   inkscape:cx="14.236022"
   inkscape:cy="33.217385"
   inkscape:current-layer="Layer_1" />
<path
   fill="#0099B0"
   d="M 15.913122,6.8838433 13.948614,6.518523 C 13.900814,6.509563 13.848471,6.464627 13.832338,6.4184991 L 13.230163,5.0136234 c -0.02247,-0.04338 -0.01816,-0.1114962 0.0096,-0.1518881 l 1.144598,-1.6682601 c 0.02737,-0.040153 0.02199,-0.1012189 -0.01255,-0.1357553 l -1.42965,-1.4296128 c -0.03454,-0.034536 -0.09548,-0.040153 -0.135636,-0.012548 l -1.697538,1.164914 C 11.068834,2.8080784 11,2.8129781 10.956382,2.7914675 L 9.5945269,2.2339867 C 9.5482793,2.2186903 9.5032267,2.1669455 9.4941445,2.1190249 L 9.1159179,0.08711759 C 9.1070747,0.03919694 9.0598711,0 9.0111139,0 H 6.9891254 C 6.9404877,0 6.8932841,0.03919694 6.8844408,0.08711759 L 6.5063338,2.1190249 c -0.00908,0.047921 -0.054015,0.099665 -0.1003825,0.1149618 L 5.0439771,2.7914675 C 5.0002391,2.8129781 4.9314054,2.8080784 4.891372,2.7804733 L 3.1939532,1.6155593 C 3.1536807,1.5879541 3.0926148,1.5935708 3.0581979,1.6281071 L 1.6284656,3.0577199 c -0.034417,0.034536 -0.040153,0.095602 -0.012548,0.1357553 l 1.144718,1.6682601 c 0.027486,0.040392 0.031788,0.1085086 0.00944,0.1518881 L 2.1677821,6.4184991 C 2.1517687,6.4646273 2.0995459,6.5095603 2.0515058,6.518523 L 0.08711759,6.8838433 C 0.03907744,6.8929255 0,6.9400097 0,6.9887668 l 1.1950287e-4,2.0218691 c 0,0.048757 0.0391969371,0.0962 0.0871175971,0.1049235 L 2.0034656,9.472156 c 0.047921,0.00872 0.099187,0.054254 0.1137667,0.1007409 L 2.7154637,11.06728 c 0.021391,0.04386 0.016372,0.112452 -0.011353,0.152605 l -1.0884321,1.586162 c -0.027486,0.04015 -0.021869,0.101338 0.012548,0.135875 l 1.4298518,1.429613 c 0.034417,0.0343 0.095483,0.03991 0.1357553,0.01255 l 1.5580784,-1.069431 c 0.040153,-0.02749 0.1074331,-0.02964 0.1493786,-0.0051 l 0.6871415,0.366873 c 0.043499,0.02223 0.094288,0.0035 0.1129302,-0.04159 l 1.4168261,-3.423398 c 0.018762,-0.04505 0,-0.102534 -0.041587,-0.127988 L 6.9046368,9.9781311 C 6.8728491,9.9587717 6.8297085,9.9254304 6.7958892,9.8948376 6.1755498,9.4976101 5.7639819,8.8027009 5.7639819,8.0113529 c 0,-1.2349427 1.0011951,-2.2360182 2.2360182,-2.2360182 1.2348232,0 2.2358989,1.0010755 2.2358989,2.2360182 0,0.791348 -0.4114486,1.4862572 -1.0319075,1.8834847 -0.03358,0.030593 -0.07684,0.063934 -0.1085086,0.083293 L 8.9235183,10.083413 c -0.041348,0.02545 -0.060229,0.08293 -0.041587,0.127988 l 1.4167067,3.423518 c 0.01864,0.04505 0.06931,0.06369 0.11293,0.04159 l 0.687142,-0.366874 c 0.04206,-0.0245 0.109225,-0.02247 0.149378,0.0051 l 1.558198,1.069431 c 0.04015,0.02737 0.101338,0.02175 0.135636,-0.01255 l 1.429852,-1.429613 c 0.03454,-0.03454 0.04015,-0.09572 0.01255,-0.135874 L 13.29577,11.220005 C 13.26828,11.179855 13.26315,11.111257 13.28454,11.0674 l 0.598231,-1.4943836 c 0.0147,-0.046487 0.06561,-0.092017 0.113647,-0.1007409 l 1.916229,-0.3565966 c 0.0478,-0.00872 0.08712,-0.056166 0.08712,-0.1049235 L 16,6.9888863 c 1.2e-4,-0.048877 -0.03908,-0.095961 -0.08688,-0.105043"
   id="path2"
   style="fill:#000000;stroke-width:1" />

















</svg>
